<svg xmlns="http://www.w3.org/2000/svg" style="display:none">
  <!-- Icons from Lucide, MIT License: https://lucide.dev/license -->
  <symbol id="plus" viewBox="0 0 24 24">
    <path d="M5 12h14" />
    <path d="M12 5v14" />
  </symbol>
  <symbol id="pencil" viewBox="0 0 24 24">
    <path d="M21.174 6.812a1 1 0 0 0-3.986-3.987L3.842 16.174a2 2 0 0 0-.5.83l-1.321 4.352a.5.5 0 0 0 .623.622l4.353-1.32a2 2 0 0 0 .83-.497z" />
    <path d="m15 5 4 4" />
  </symbol>
  <symbol id="trash-2" viewBox="0 0 24 24">
    <path d="M3 6h18" />
    <path d="M19 6v14c0 1-1 2-2 2H7c-1 0-2-1-2-2V6" />
    <path d="M8 6V4c0-1 1-2 2-2h4c1 0 2 1 2 2v2" />
    <line x1="10" x2="10" y1="11" y2="17" />
    <line x1="14" x2="14" y1="11" y2="17" />
  </symbol>
  <symbol id="x" viewBox="0 0 24 24">
    <path d="M18 6 6 18" />
    <path d="m6 6 12 12" />
  </symbol>
  <symbol id="menu" viewBox="0 0 24 24">
    <path d="M4 12h16" />
    <path d="M4 18h16" />
    <path d="M4 6h16" />
  </symbol>
  <symbol id="chevron-left" viewBox="0 0 24 24">
    <path d="m15 18-6-6 6-6" />
  </symbol>
  <symbol id="chevron-right" viewBox="0 0 24 24">
    <path d="m9 18 6-6-6-6" />
  </symbol>
  <symbol id="priority-low" viewBox="0 0 24 24">
    <path d="M12 15v3" />
  </symbol>
  <symbol id="priority-medium" viewBox="0 0 24 24">
    <path d="M9 13v5" />
    <path d="M15 9v9" />
  </symbol>
  <symbol id="priority-high" viewBox="0 0 24 24">
    <path d="M6 15v3" />
    <path d="M12 11v7" />
    <path d="M18 6v12" />
  </symbol>
  <symbol id="circle-alert" viewBox="0 0 24 24">
    <circle cx="12" cy="12" r="10" />
    <line x1="12" x2="12" y1="8" y2="12" />
    <line x1="12" x2="12.01" y1="16" y2="16" />
  </symbol>
  <symbol id="check" viewBox="0 0 24 24">
    <path d="M20 6 9 17l-5-5" />
  </symbol>
  <symbol id="circle" viewBox="0 0 24 24">
    <circle cx="12" cy="12" r="10" />
  </symbol>
  <symbol id="search" viewBox="0 0 24 24">
    <circle cx="11" cy="11" r="8" />
    <path d="m21 21-4.3-4.3" />
  </symbol>
  <symbol id="columns-3" viewBox="0 0 24 24">
    <rect width="18" height="18" x="3" y="3" rx="2" />
    <path d="M9 3v18" />
    <path d="M15 3v18" />
  </symbol>
  <symbol id="list" viewBox="0 0 24 24">
    <path d="M8 6h13" />
    <path d="M8 12h13" />
    <path d="M8 18h13" />
    <path d="M3 6h.01" />
    <path d="M3 12h.01" />
    <path d="M3 18h.01" />
  </symbol>
  <symbol id="archive" viewBox="0 0 24 24">
    <rect width="20" height="5" x="2" y="3" rx="1" />
    <path d="M4 8v11a2 2 0 0 0 2 2h12a2 2 0 0 0 2-2V8" />
    <path d="M10 12h4" />
  </symbol>
  <symbol id="download" viewBox="0 0 24 24">
    <path d="M12 15V3" />
    <path d="M21 15v4a2 2 0 0 1-2 2H5a2 2 0 0 1-2-2v-4" />
    <path d="m7 10 5 5 5-5" />
  </symbol>
  <symbol id="upload" viewBox="0 0 24 24">
    <path d="M12 3v12" />
    <path d="M17 8 12 3 7 8" />
    <path d="M21 15v4a2 2 0 0 1-2 2H5a2 2 0 0 1-2-2v-4" />
  </symbol>
  <symbol id="link-plus" viewBox="0 0 24 24">
    <path d="M9 17H7A5 5 0 0 1 7 7h2" />
    <path d="M15 7h2a5 5 0 0 1 0 10h-2" />
    <path d="M8 12h8" />
    <path d="M19 9v6" />
    <path d="M16 12h6" />
  </symbol>
  <symbol id="rotate-ccw" viewBox="0 0 24 24">
    <path d="M3 12a9 9 0 1 0 9-9 9.75 9.75 0 0 0-6.74 2.74L3 8" />
    <path d="M3 3v5h5" />
  </symbol>
  <symbol id="settings" viewBox="0 0 24 24">
    <path d="M12.22 2h-.44a2 2 0 0 0-2 2v.18a2 2 0 0 1-1 1.73l-.43.25a2 2 0 0 1-2 0l-.15-.08a2 2 0 0 0-2.73.73l-.22.38a2 2 0 0 0 .73 2.73l.15.1a2 2 0 0 1 1 1.72v.51a2 2 0 0 1-1 1.74l-.15.09a2 2 0 0 0-.73 2.73l.22.38a2 2 0 0 0 2.73.73l.15-.08a2 2 0 0 1 2 0l.43.25a2 2 0 0 1 1 1.73V20a2 2 0 0 0 2 2h.44a2 2 0 0 0 2-2v-.18a2 2 0 0 1 1-1.73l.43-.25a2 2 0 0 1 2 0l.15.08a2 2 0 0 0 2.73-.73l.22-.38a2 2 0 0 0-.73-2.73l-.15-.09a2 2 0 0 1-1-1.74v-.5a2 2 0 0 1 1-1.74l.15-.09a2 2 0 0 0 .73-2.73l-.22-.38a2 2 0 0 0-2.73-.73l-.15.08a2 2 0 0 1-2 0l-.43-.25a2 2 0 0 1-1-1.73V4a2 2 0 0 0-2-2z" />
    <circle cx="12" cy="12" r="3" />
  </symbol>
  <symbol id="ellipsis" viewBox="0 0 24 24">
    <circle cx="12" cy="12" r="1" />
    <circle cx="19" cy="12" r="1" />
    <circle cx="5" cy="12" r="1" />
  </symbol>
  <symbol id="github" viewBox="0 0 24 24">
    <path d="M12 2a10 10 0 0 0-3.16 19.49c.5.09.68-.22.68-.48v-1.69c-2.78.6-3.37-1.34-3.37-1.34-.45-1.16-1.11-1.47-1.11-1.47-.91-.62.07-.61.07-.61 1 .07 1.53 1.03 1.53 1.03.9 1.53 2.35 1.09 2.92.83.09-.65.35-1.09.63-1.34-2.22-.25-4.56-1.11-4.56-4.94 0-1.09.39-1.98 1.03-2.68-.1-.25-.45-1.27.1-2.64 0 0 .84-.27 2.75 1.02A9.57 9.57 0 0 1 12 6.84c.85 0 1.7.11 2.5.34 1.91-1.29 2.75-1.02 2.75-1.02.55 1.37.2 2.39.1 2.64.64.7 1.03 1.59 1.03 2.68 0 3.84-2.34 4.69-4.57 4.93.36.31.68.92.68 1.85V21c0 .26.18.58.69.48A10 10 0 0 0 12 2z" />
  </symbol>
  <symbol id="gitlab" viewBox="0 0 24 24">
    <path d="m12 21 3.84-11.83H8.16L12 21Z" />
    <path d="M12 21 4.53 9.17h3.63L12 21Z" />
    <path d="M12 21 19.47 9.17h-3.63L12 21Z" />
    <path d="m4.53 9.17 1.48-4.57a.73.73 0 0 1 1.38 0l.77 2.74L4.53 9.17Z" />
    <path d="m19.47 9.17-1.48-4.57a.73.73 0 0 0-1.38 0l-.77 2.74 3.63 1.83Z" />
    <path d="M8.16 9.17h7.68l-2.4-7.27a1.52 1.52 0 0 0-2.88 0l-2.4 7.27Z" />
  </symbol>
  <symbol id="redmine" viewBox="0 0 24 24">
    <path d="m6.5 6.5 5.5-3 5.5 3v6l-5.5 3-5.5-3Z" />
    <path d="m3 11.5 5.5-3 5.5 3v6L8.5 20.5 3 17.5Z" />
    <path d="m10 11.5 5.5-3 5.5 3v6L15.5 20.5 10 17.5Z" />
  </symbol>
</svg>
